External Loads File
version=1
nRows=39
nColumns=13
Range=5.000000e-03-10 seconds
endheader
time 	forceRightX 	forceRightY 	forceRightZ 	pointRightX 	pointRightY 	pointRightZ 	forceLeftX 	forceLeftY 	forceLeftZ 	pointLeftX 	pointLeftY 	pointLeftZ 		
7.505000 26.879563 63.251031 -0.000000 0.243777 0.461203 -0.126627 51.506848 606.184027 -0.000000 0.388325 0.170428 -0.365759
7.510000 25.016826 71.384840 -0.000000 0.252599 0.467162 -0.126577 67.533030 595.469505 -0.000000 0.380121 0.165062 -0.365548
7.515000 23.121353 79.423227 -0.000000 0.261651 0.472774 -0.126753 81.914966 581.787317 -0.000000 0.371639 0.160247 -0.365320
7.520000 20.939429 87.166291 -0.000000 0.270863 0.477750 -0.126626 94.159802 565.502910 -0.000000 0.362952 0.155997 -0.365221
7.525000 18.335564 94.462800 -0.000000 0.280266 0.482092 -0.126679 104.380671 546.899248 -0.000000 0.354041 0.152388 -0.364989
7.530000 15.267692 101.224253 -0.000000 0.289985 0.485839 -0.126474 112.833076 526.225906 -0.000000 0.344964 0.149366 -0.364814
7.535000 11.625655 107.429484 -0.000000 0.299609 0.488935 -0.126692 119.123392 503.885730 -0.000000 0.335664 0.147048 -0.364670
7.540000 7.412430 113.074858 -0.000000 0.309044 0.491211 -0.126838 123.309324 480.210507 -0.000000 0.326214 0.145321 -0.364443
7.545000 2.776201 118.199122 -0.000000 0.318620 0.493010 -0.126836 125.967230 455.394796 -0.000000 0.316792 0.144370 -0.364658
7.550000 -2.105262 122.912273 -0.000000 0.328233 0.494002 -0.126879 127.623579 429.620455 -0.000000 0.307132 0.144027 -0.364523
7.555000 -7.125356 127.355966 -0.000000 0.337800 0.494368 -0.127032 128.357456 403.177570 -0.000000 0.297326 0.144447 -0.364427
7.560000 -12.157870 131.658036 -0.000000 0.347231 0.494031 -0.127120 128.226448 376.371513 -0.000000 0.287478 0.145607 -0.364289
7.565000 -17.071579 135.950659 -0.000000 0.356403 0.492940 -0.127214 127.314558 349.529586 -0.000000 0.277619 0.147482 -0.364165
7.570000 -21.572967 140.435849 -0.000000 0.365779 0.491120 -0.127316 126.101309 322.848131 -0.000000 0.267838 0.149931 -0.364092
7.575000 -25.747784 145.309420 -0.000000 0.374753 0.488668 -0.127414 124.105293 296.867783 -0.000000 0.258199 0.153182 -0.364010
7.580000 -29.358480 150.809930 -0.000000 0.383596 0.485429 -0.127629 121.619044 271.798022 -0.000000 0.248767 0.157069 -0.363942
7.585000 -32.589943 157.050672 -0.000000 0.391540 0.481428 -0.127578 118.147382 248.140268 -0.000000 0.239634 0.161590 -0.363881
7.590000 -34.875310 164.243256 -0.000000 0.399753 0.476883 -0.127166 114.507813 225.742910 -0.000000 0.230808 0.166787 -0.363822
7.595000 -36.573035 172.371299 -0.000000 0.407142 0.471635 -0.127373 110.107069 205.073323 -0.000000 0.222299 0.172496 -0.363834
7.600000 -37.427882 181.512680 -0.000000 0.414537 0.465737 -0.127116 105.353522 186.063688 -0.000000 0.214338 0.178721 -0.363718
7.605000 -37.714996 191.607334 -0.000000 0.421285 0.459246 -0.126889 100.079932 168.905955 -0.000000 0.206851 0.185518 -0.363656
7.610000 -37.484940 202.628500 -0.000000 0.427498 0.452145 -0.126486 94.482456 153.567046 -0.000000 0.199780 0.192727 -0.363507
7.615000 -36.989783 214.503096 -0.000000 0.433288 0.444785 -0.126520 88.680125 140.033529 -0.000000 0.193186 0.200329 -0.363294
7.620000 -36.013099 227.222702 -0.000000 0.438583 0.436614 -0.126334 83.146146 128.015287 -0.000000 0.186848 0.208464 -0.362400
7.625000 -35.064879 240.623733 -0.000000 0.443338 0.427665 -0.126156 77.866707 117.450210 -0.000000 0.181368 0.216882 -0.362257
7.630000 -34.389563 254.567738 -0.000000 0.447663 0.418532 -0.125984 73.014745 108.105169 -0.000000 0.176493 0.225628 -0.362212
7.635000 -33.969476 268.951216 -0.000000 0.451376 0.409002 -0.125888 68.859859 99.680320 -0.000000 0.172196 0.234785 -0.362198
7.640000 -33.838284 283.697386 -0.000000 0.454650 0.399134 -0.125785 65.605390 91.920605 -0.000000 0.168452 0.244231 -0.362131
7.645000 -33.950317 298.785857 -0.000000 0.457215 0.388930 -0.125514 63.383909 84.557423 -0.000000 0.165234 0.254023 -0.362071
7.650000 -33.612831 314.267331 -0.000000 0.459914 0.378148 -0.125682 62.321570 77.221496 -0.000000 0.162630 0.264084 -0.362095
7.655000 -33.370477 330.001075 -0.000000 0.461795 0.367300 -0.125515 62.050697 69.874692 -0.000000 0.160623 0.274325 -0.362149
7.660000 -32.866902 345.895248 -0.000000 0.463126 0.356413 -0.125352 62.389381 62.389746 -0.000000 0.159230 0.284702 -0.362145
7.665000 -31.559903 361.855974 -0.000000 0.463923 0.345321 -0.125154 63.179482 54.706683 -0.000000 0.158445 0.295242 -0.362143
7.670000 -29.470904 377.747128 -0.000000 0.464220 0.334198 -0.125245 64.214168 46.899525 -0.000000 0.158458 0.305883 -0.362067
7.675000 -26.591762 393.442260 -0.000000 0.464199 0.323031 -0.124906 65.324237 39.010033 -0.000000 0.158960 0.316442 -0.362023
7.680000 -22.629255 408.808837 -0.000000 0.463382 0.311828 -0.125098 66.328838 31.015691 -0.000000 0.160224 0.327092 -0.362244
7.685000 -17.700832 423.650056 -0.000000 0.462209 0.300693 -0.125142 66.970878 22.968256 -0.000000 0.161952 0.337764 -0.362172
7.690000 -10.635210 437.784487 -0.000000 0.460479 0.288818 -0.125065 67.049770 14.747784 -0.000000 0.164332 0.348396 -0.362135
7.695000 -4.027364 450.908689 -0.000000 0.459248 0.277853 -0.125545 66.246524 6.891550 -0.000000 0.167408 0.359010 -0.362193
